<?xml version="1.0" standalone="no"?>
<!DOCTYPE svg PUBLIC "-//W3C//DTD SVG 20010904//EN"
 "http://www.w3.org/TR/2001/REC-SVG-20010904/DTD/svg10.dtd">
<svg version="1.0" xmlns="http://www.w3.org/2000/svg"
 width="1148.000000pt" height="1280.000000pt" viewBox="0 0 1148.000000 1280.000000"
 preserveAspectRatio="xMidYMid meet">
<g transform="translate(0.000000,1280.000000) scale(0.100000,-0.100000)"
fill="#000000" stroke="none">
<path d="M1476 12777 c-3 -12 -138 -596 -300 -1297 -162 -701 -322 -1393 -355
-1537 -34 -144 -61 -266 -61 -272 0 -8 744 -11 2571 -11 2444 0 2571 -1 2567
-17 -3 -10 -369 -596 -813 -1303 -1620 -2576 -3199 -5089 -4118 -6550 -517
-822 -946 -1502 -953 -1511 -10 -12 -14 -49 -14 -147 l0 -132 5359 0 5359 0
20 78 c12 42 168 646 347 1342 180 696 340 1312 357 1370 26 86 32 127 35 228
l4 122 -2940 0 c-2436 0 -2941 2 -2941 13 0 8 187 312 416 678 229 365 862
1375 1407 2244 1915 3056 2258 3603 3140 5010 489 781 896 1427 903 1436 10
12 14 49 14 147 l0 132 -4999 0 -4999 0 -6 -23z"/>
</g>
</svg>
